<svg width="16" height="17" viewBox="0 0 16 17" fill="none" xmlns="http://www.w3.org/2000/svg">
<path d="M8.30793 6.53058C7.80356 6.53058 7.31986 6.73094 6.96322 7.08758C6.60658 7.44422 6.40622 7.92793 6.40622 8.43229C6.40622 8.93666 6.60658 9.42037 6.96322 9.77701C7.31986 10.1336 7.80356 10.334 8.30793 10.334C8.81229 10.334 9.296 10.1336 9.65264 9.77701C10.0093 9.42037 10.2096 8.93666 10.2096 8.43229C10.2096 7.92793 10.0093 7.44422 9.65264 7.08758C9.296 6.73094 8.81229 6.53058 8.30793 6.53058ZM8.30793 5.26278C9.14854 5.26278 9.95471 5.59671 10.5491 6.19111C11.1435 6.78551 11.4774 7.59169 11.4774 8.43229C11.4774 9.2729 11.1435 10.0791 10.5491 10.6735C9.95471 11.2679 9.14854 11.6018 8.30793 11.6018C7.46732 11.6018 6.66114 11.2679 6.06674 10.6735C5.47234 10.0791 5.13841 9.2729 5.13841 8.43229C5.13841 7.59169 5.47234 6.78551 6.06674 6.19111C6.66114 5.59671 7.46732 5.26278 8.30793 5.26278ZM12.4283 5.1043C12.4283 5.31445 12.3448 5.516 12.1962 5.6646C12.0476 5.8132 11.8461 5.89668 11.6359 5.89668C11.4258 5.89668 11.2242 5.8132 11.0756 5.6646C10.927 5.516 10.8435 5.31445 10.8435 5.1043C10.8435 4.89415 10.927 4.69261 11.0756 4.54401C11.2242 4.39541 11.4258 4.31192 11.6359 4.31192C11.8461 4.31192 12.0476 4.39541 12.1962 4.54401C12.3448 4.69261 12.4283 4.89415 12.4283 5.1043ZM8.30793 3.36107C6.73965 3.36107 6.48355 3.36551 5.75393 3.39783C5.25695 3.42129 4.92352 3.48785 4.61417 3.60829C4.3553 3.70334 4.12126 3.85568 3.92956 4.05392C3.73115 4.24562 3.5786 4.47964 3.48329 4.73854C3.36285 5.04915 3.29629 5.38195 3.27347 5.8783C3.24051 6.57813 3.23607 6.82281 3.23607 8.43229C3.23607 10.0012 3.24051 10.2567 3.27283 10.9863C3.29629 11.4826 3.36285 11.8167 3.48266 12.1254C3.59042 12.4012 3.7172 12.5996 3.92766 12.81C4.14128 13.023 4.33969 13.1504 4.61227 13.2557C4.92542 13.3767 5.25885 13.4439 5.7533 13.4668C6.45313 13.4997 6.69781 13.5035 8.30729 13.5035C9.8762 13.5035 10.1317 13.4991 10.8613 13.4668C11.357 13.4433 11.6904 13.3767 12.0004 13.2569C12.2591 13.1614 12.493 13.0091 12.685 12.8113C12.8987 12.5983 13.0261 12.3999 13.1313 12.1267C13.2517 11.8148 13.3189 11.4814 13.3418 10.9857C13.3747 10.2865 13.3785 10.0411 13.3785 8.43229C13.3785 6.86402 13.3741 6.60792 13.3418 5.8783C13.3183 5.38259 13.2511 5.04788 13.1313 4.73854C13.0357 4.47992 12.8835 4.24599 12.6857 4.05392C12.4941 3.85541 12.26 3.70285 12.001 3.60766C11.6904 3.48721 11.357 3.42066 10.8613 3.39783C10.1621 3.36487 9.91741 3.36107 8.30729 3.36107M8.30729 2.09326C10.0296 2.09326 10.2445 2.0996 10.9209 2.1313C11.5953 2.16299 12.0556 2.26885 12.4594 2.42606C12.8777 2.58707 13.2302 2.80513 13.5826 3.15695C13.905 3.47384 14.1544 3.85715 14.3135 4.28023C14.4701 4.68402 14.5766 5.14424 14.6083 5.81934C14.6381 6.49509 14.6463 6.70998 14.6463 8.43229C14.6463 10.1546 14.64 10.3695 14.6083 11.0452C14.5766 11.7203 14.4701 12.1799 14.3135 12.5844C14.1548 13.0077 13.9054 13.3911 13.5826 13.7076C13.2657 14.0299 12.8824 14.2793 12.4594 14.4385C12.0556 14.5951 11.5953 14.7016 10.9209 14.7333C10.2445 14.7631 10.0296 14.7713 8.30729 14.7713C6.58498 14.7713 6.37009 14.765 5.69371 14.7333C5.01924 14.7016 4.55966 14.5951 4.15523 14.4385C3.73199 14.2797 3.3486 14.0303 3.03195 13.7076C2.70957 13.3908 2.46015 13.0075 2.30106 12.5844C2.14385 12.1806 2.03799 11.7203 2.0063 11.0452C1.97587 10.3695 1.96826 10.1546 1.96826 8.43229C1.96826 6.70998 1.9746 6.49509 2.0063 5.81934C2.03799 5.14424 2.14385 4.68466 2.30106 4.28023C2.45969 3.85689 2.70917 3.47347 3.03195 3.15695C3.34869 2.83444 3.73205 2.585 4.15523 2.42606C4.55902 2.26885 5.0186 2.16299 5.69371 2.1313C6.37072 2.1015 6.58561 2.09326 8.30793 2.09326" fill="white"/>
</svg>
