<svg width="16" height="17" viewBox="0 0 16 17" fill="none" xmlns="http://www.w3.org/2000/svg">
<g clip-path="url(#clip0_1_1939)">
<path d="M14.6624 8.4323C14.6635 9.26725 14.4991 10.0941 14.1787 10.8652C13.8584 11.6362 13.3884 12.3361 12.7959 12.9245C12.2083 13.511 11.5109 13.9761 10.7434 14.293C9.97603 14.6098 9.15368 14.7724 8.32341 14.7713C4.82237 14.7713 1.98438 11.9333 1.98438 8.4323C1.98216 6.8069 2.60652 5.24318 3.72761 4.06629C4.31915 3.44209 5.03184 2.94515 5.82207 2.6059C6.6123 2.26665 7.46344 2.09221 8.32341 2.09327C9.15368 2.09219 9.97603 2.25475 10.7434 2.57165C11.5109 2.88854 12.2083 3.35357 12.7959 3.94014C13.3884 4.52848 13.8584 5.22839 14.1787 5.99943C14.4991 6.77046 14.6635 7.59735 14.6624 8.4323Z" stroke="white" stroke-width="1.52137" stroke-linecap="round" stroke-linejoin="round"/>
<path d="M14.6625 8.43245C13.7377 8.43245 11.1862 8.0838 8.90259 9.08632C6.42181 10.1757 4.62564 11.8657 3.84277 12.9164" stroke="white" stroke-width="1.52137" stroke-linecap="round" stroke-linejoin="round"/>
<path d="M5.94727 2.55444C6.93932 3.47012 9.1041 5.80129 9.90916 8.11567C10.7142 10.4301 11.0122 13.2756 11.196 14.0855" stroke="white" stroke-width="1.52137" stroke-linecap="round" stroke-linejoin="round"/>
<path d="M2.03564 7.63999C3.23309 7.71226 6.40292 7.77723 8.43141 6.911C10.4599 6.04478 12.2054 4.45146 12.8041 3.94592M2.46226 10.8453C3.02083 12.1974 4.02823 13.3157 5.31483 14.012" stroke="white" stroke-width="1.52137" stroke-linecap="round" stroke-linejoin="round"/>
<path d="M1.98438 8.4323C1.98216 6.8069 2.60652 5.24318 3.72761 4.06629C4.31915 3.44209 5.03184 2.94515 5.82207 2.6059C6.6123 2.26665 7.46344 2.09221 8.32341 2.09327M10.859 2.62067C11.5809 2.93653 12.2377 3.38397 12.7959 3.94014C13.3884 4.52848 13.8584 5.22839 14.1787 5.99942C14.4991 6.77046 14.6635 7.59735 14.6624 8.4323C14.6624 9.21263 14.5214 9.96032 14.2631 10.651M8.32341 14.7713C9.15368 14.7724 9.97603 14.6098 10.7434 14.293C11.5109 13.9761 12.2083 13.511 12.7959 12.9245" stroke="white" stroke-width="1.52137" stroke-linecap="round" stroke-linejoin="round"/>
</g>
<defs>
<clipPath id="clip0_1_1939">
<rect width="15.2137" height="15.2137" fill="white" transform="translate(0.717773 0.825317)"/>
</clipPath>
</defs>
</svg>
