<svg width="25" height="26" viewBox="0 0 25 26" fill="none" xmlns="http://www.w3.org/2000/svg">
<path d="M24.8252 8.48422C23.7347 5.8323 21.7583 3.64056 19.233 2.28244C16.7076 0.924326 13.7894 0.483865 10.9757 1.03611C8.16197 1.58835 5.62678 3.09913 3.80209 5.31103C1.97739 7.52292 0.976088 10.2991 0.96879 13.1665C0.961493 16.0339 1.94865 18.8151 3.76207 21.0362C5.57548 23.2574 8.10295 24.7811 10.9138 25.3476C13.7247 25.9142 16.6451 25.4886 19.1773 24.1433C21.7096 22.7981 23.697 20.6164 24.8011 17.9701L13.3627 13.198L24.8252 8.48422Z" fill="url(#paint0_linear_1_1828)"/>
<defs>
<linearGradient id="paint0_linear_1_1828" x1="25.6579" y1="11.5857" x2="1.05803" y2="11.7721" gradientUnits="userSpaceOnUse">
<stop stop-color="#7A87FB"/>
<stop offset="1" stop-color="#FFD49C"/>
</linearGradient>
</defs>
</svg>
