<svg width="16" height="17" viewBox="0 0 16 17" fill="none" xmlns="http://www.w3.org/2000/svg">
<g clip-path="url(#clip0_1_1952)">
<path fill-rule="evenodd" clip-rule="evenodd" d="M3.21995 8.43278C3.22005 7.45686 3.50173 6.50169 4.03122 5.68188C4.5607 4.86208 5.31549 4.21247 6.20501 3.811C7.09453 3.40953 8.081 3.27326 9.04606 3.41853C10.0111 3.5638 10.9137 3.98444 11.6457 4.62999C12.3776 5.27554 12.9077 6.11857 13.1723 7.05791C13.437 7.99726 13.425 8.99303 13.1378 9.92573C12.8506 10.8584 12.3003 11.6885 11.5531 12.3162C10.8059 12.9439 9.89335 13.3427 8.92508 13.4647V9.70059H10.1929C10.361 9.70059 10.5222 9.6338 10.6411 9.51492C10.76 9.39604 10.8268 9.23481 10.8268 9.06668C10.8268 8.89856 10.76 8.73733 10.6411 8.61845C10.5222 8.49957 10.361 8.43278 10.1929 8.43278H8.92508V7.16498C8.92508 6.99685 8.99187 6.83562 9.11075 6.71674C9.22963 6.59786 9.39086 6.53107 9.55899 6.53107H9.87594C10.0441 6.53107 10.2053 6.46429 10.3242 6.34541C10.4431 6.22653 10.5098 6.06529 10.5098 5.89717C10.5098 5.72905 10.4431 5.56781 10.3242 5.44893C10.2053 5.33005 10.0441 5.26327 9.87594 5.26327H9.55899C9.05462 5.26327 8.57091 5.46362 8.21427 5.82026C7.85763 6.1769 7.65728 6.66061 7.65728 7.16498V8.43278H6.38947C6.22135 8.43278 6.06011 8.49957 5.94123 8.61845C5.82235 8.73733 5.75557 8.89856 5.75557 9.06668C5.75557 9.23481 5.82235 9.39604 5.94123 9.51492C6.06011 9.6338 6.22135 9.70059 6.38947 9.70059H7.65728V13.4647C6.43175 13.3102 5.30475 12.7137 4.48776 11.7872C3.67078 10.8608 3.21998 9.66801 3.21995 8.43278ZM8.29118 14.7718C11.7922 14.7718 14.6302 11.9338 14.6302 8.43278C14.6302 4.93173 11.7922 2.09375 8.29118 2.09375C4.79013 2.09375 1.95215 4.93173 1.95215 8.43278C1.95215 11.9338 4.79013 14.7718 8.29118 14.7718Z" fill="white"/>
</g>
<defs>
<clipPath id="clip0_1_1952">
<rect width="15.2137" height="15.2137" fill="white" transform="translate(0.683594 0.825317)"/>
</clipPath>
</defs>
</svg>
