<svg width="34" height="35" viewBox="0 0 34 35" fill="none" xmlns="http://www.w3.org/2000/svg">
<path d="M14.0951 28.8976C7.66319 28.8976 2.43848 23.6883 2.43848 17.2753V6.245C8.87041 6.245 14.0951 11.4543 14.0951 17.8673V28.8976Z" fill="url(#paint0_linear_1_1742)"/>
<path d="M15.106 19.505V13.6446C15.106 9.56001 18.4308 6.245 22.5274 6.245V12.1055C22.5274 16.19 19.2026 19.505 15.106 19.505Z" fill="url(#paint1_linear_1_1742)"/>
<path d="M31.8884 28.8972H23.3784C18.8068 28.8972 15.106 25.2073 15.106 20.6492H23.6159C28.1875 20.6492 31.8884 24.3391 31.8884 28.8972Z" fill="url(#paint2_linear_1_1742)"/>
<defs>
<linearGradient id="paint0_linear_1_1742" x1="2.43848" y1="17.5713" x2="14.0951" y2="17.5713" gradientUnits="userSpaceOnUse">
<stop stop-color="#7A87FB"/>
<stop offset="1" stop-color="#FFD49C"/>
</linearGradient>
<linearGradient id="paint1_linear_1_1742" x1="15.106" y1="12.875" x2="22.5274" y2="12.875" gradientUnits="userSpaceOnUse">
<stop stop-color="#7A87FB"/>
<stop offset="1" stop-color="#FFD49C"/>
</linearGradient>
<linearGradient id="paint2_linear_1_1742" x1="15.106" y1="24.7732" x2="31.8884" y2="24.7732" gradientUnits="userSpaceOnUse">
<stop stop-color="#7A87FB"/>
<stop offset="1" stop-color="#FFD49C"/>
</linearGradient>
</defs>
</svg>
