<svg width="17" height="17" viewBox="0 0 17 17" fill="none" xmlns="http://www.w3.org/2000/svg">
<path d="M4.44889 5.23779H7.78223C7.95904 5.23779 8.12861 5.30803 8.25363 5.43306C8.37865 5.55808 8.44889 5.72765 8.44889 5.90446C8.44889 6.08127 8.37865 6.25084 8.25363 6.37586C8.12861 6.50089 7.95904 6.57113 7.78223 6.57113H4.44889C4.27208 6.57113 4.10251 6.50089 3.97749 6.37586C3.85246 6.25084 3.78223 6.08127 3.78223 5.90446C3.78223 5.72765 3.85246 5.55808 3.97749 5.43306C4.10251 5.30803 4.27208 5.23779 4.44889 5.23779ZM9.11556 10.5711H12.4489C12.6257 10.5711 12.7953 10.6414 12.9203 10.7664C13.0453 10.8914 13.1156 11.061 13.1156 11.2378C13.1156 11.4146 13.0453 11.5842 12.9203 11.7092C12.7953 11.8342 12.6257 11.9045 12.4489 11.9045H9.11556C8.93875 11.9045 8.76918 11.8342 8.64416 11.7092C8.51913 11.5842 8.44889 11.4146 8.44889 11.2378C8.44889 11.061 8.51913 10.8914 8.64416 10.7664C8.76918 10.6414 8.93875 10.5711 9.11556 10.5711ZM4.44889 7.90446H12.4489C12.6257 7.90446 12.7953 7.9747 12.9203 8.09972C13.0453 8.22475 13.1156 8.39432 13.1156 8.57113C13.1156 8.74794 13.0453 8.91751 12.9203 9.04253C12.7953 9.16755 12.6257 9.23779 12.4489 9.23779H4.44889C4.27208 9.23779 4.10251 9.16755 3.97749 9.04253C3.85246 8.91751 3.78223 8.74794 3.78223 8.57113C3.78223 8.39432 3.85246 8.22475 3.97749 8.09972C4.10251 7.9747 4.27208 7.90446 4.44889 7.90446Z" fill="white"/>
</svg>
